# Blender v2.72 (sub 0) OBJ File: 'testkiste.blend'
# www.blender.org
mtllib testkiste2.mtl
o Cube
v 1.000000 -1.000000 -1.000000
v 1.000000 -1.000000 1.000000
v -1.000000 -1.000000 1.000000
v -1.000000 -1.000000 -1.000000
v 1.000000 1.000000 -0.999999
v 0.999999 1.000000 1.000001
v -1.000000 1.000000 1.000000
v -1.000000 1.000000 -1.000000
vt 0.999149 0.972711
vt 0.000200 0.972711
vt 0.000200 0.003455
vt 0.999149 0.003455
vt 0.993306 0.961290
vt 0.004090 0.961290
vt 0.004090 0.004856
vt 0.993305 0.004855
vt 0.003550 0.997900
vt 0.003550 0.002100
vt 0.996450 0.002100
vt 0.996450 0.997901
vt 0.000095 0.999905
vt 0.000096 0.000095
vt 0.999905 0.000095
vt 0.999905 0.999905
vt 0.004757 0.998775
vt 0.004757 0.000200
vt 0.999800 0.000200
vt 0.999800 0.998775
vt 0.998553 0.002804
vt 0.998553 0.999800
vt 0.000200 0.999800
vt 0.000200 0.002804
vn 0.000000 -1.000000 0.000000
vn 0.000000 1.000000 0.000000
vn 1.000000 0.000000 0.000000
vn -0.000000 -0.000000 1.000000
vn -1.000000 -0.000000 -0.000000
vn 0.000000 0.000000 -1.000000
usemtl Grundfarbe
s off
f 1/1/1 2/2/1 3/3/1 4/4/1
f 5/5/2 8/6/2 7/7/2 6/8/2
f 1/9/3 5/10/3 6/11/3 2/12/3
f 2/13/4 6/14/4 7/15/4 3/16/4
f 3/17/5 7/18/5 8/19/5 4/20/5
f 5/21/6 1/22/6 4/23/6 8/24/6
